# xmcd
#
# Track frame offsets:
#	150
#	13013
#	26265
#	37589
#	52324
#	66701
#	78547
#	91891
#	107926
#	119758
#	133153
#	145151
#	157292
#	169821
#	178745
#	193274
#	202514
#	213102
#	223693
#	236449
#
# Disc length: 3335 seconds
#
# Revision: 1
# Processed by: cddbd v1.5.2PL0 Copyright (c) Steve Scherf et al.
# Submitted via: audiograbber 1.83.01
#
DISCID=290d0514
DTITLE=Tom Jones - The Tom Jones Collection [Pegasus] Disc 2
DYEAR=2005
DGENRE=
TTITLE0=You're My World
TTITLE1=Yesterday
TTITLE2=Send in the Clowns
TTITLE3=Unchained Melody
TTITLE4=You've Lost That Loving Feelin'
TTITLE5=If I Ruled the World
TTITLE6=Let It Be
TTITLE7=My Way
TTITLE8=Make the World Go Away
TTITLE9=I Write the Songs
TTITLE10=Oh Pretty Woman
TTITLE11=All by Myself
TTITLE12=Behind Closed Doors
TTITLE13=Cupid
TTITLE14=Help Me Make It Through the Night
TTITLE15=For Once in My Life
TTITLE16=Release Me
TTITLE17=Save the Last Dance for Me
TTITLE18=Let Your Love Flow
TTITLE19=Bridge Over Troubled Water
EXTD=Favourites Tom Jones\nPEG CD 568\n
EXTT0=
EXTT1=
EXTT2=
EXTT3=
EXTT4=
EXTT5=
EXTT6=
EXTT7=
EXTT8=
EXTT9=
EXTT10=
EXTT11=
EXTT12=
EXTT13=
EXTT14=
EXTT15=
EXTT16=
EXTT17=
EXTT18=
EXTT19=
PLAYORDER=
